# xmcd
#
# Track frame offsets:
#	150
#	17805
#	30175
#	42792
#	62022
#	81032
#	98090
#	110277
#	127785
#	148152
#	163065
#	183640
#	193325
#	206705
#	224457
#	243777
#	255905
#	266130
#	284342
#
# Disc length: 4125 seconds
#
# Revision: 1
# Processed by: cddbd v1.5.2PL0 Copyright (c) Steve Scherf et al.
# Submitted via: audiograbber 1.83.01
#
DISCID=0d101b13
DTITLE=Diversen - Drie
DYEAR=1900
DGENRE=Pop
TTITLE0=Wim Duin - The one i need
TTITLE1=Jan-Paul van der Meij - Lady grinning soul
TTITLE2=Kitstone - Parasites
TTITLE3=Kitstone - They stay
TTITLE4=Kitstone - Don't worry
TTITLE5=Kitstone - It's real
TTITLE6=Longshot - Snut
TTITLE7=King Cake - Guacamole
TTITLE8=King Cake - Three amigos
TTITLE9=Boystown - Burn my candle
TTITLE10=Boystow - Roads
TTITLE11=Jan-Paul van der Meij - Rock 'n' Roll Ruby
TTITLE12=Boogie Chillen - Crazy mama
TTITLE13=Jan-Paul van der Meij - Drink en vergeet
TTITLE14=Ab Winkel - Oosten
TTITLE15=Spigotty Macina - C Haman Ika
TTITLE16=Spigotty Macina - Sweet hart Lily
TTITLE17=Spigotty Macina - Fireman
TTITLE18=Spigotty Macina - Dog with a bone
EXTD=
EXTT0=
EXTT1=
EXTT2=
EXTT3=
EXTT4=
EXTT5=
EXTT6=
EXTT7=
EXTT8=
EXTT9=
EXTT10=
EXTT11=
EXTT12=
EXTT13=
EXTT14=
EXTT15=
EXTT16=
EXTT17=
EXTT18=
PLAYORDER=
